<svg xmlns="http://www.w3.org/2000/svg" viewBox="0 0 520 520"><defs><style>.cls-1{fill:#2a7a4c;}.cls-2{fill:#fff;}</style></defs><g id="Layer_2" data-name="Layer 2"><g id="Layer_1-2" data-name="Layer 1"><rect class="cls-1" width="520" height="520"/><path class="cls-2" d="M139,190.13h-.73a21.48,21.48,0,0,1-4.72-1.45,21.06,21.06,0,0,1-4-5.09,22.07,22.07,0,0,1-3.27-8.35,1.06,1.06,0,0,1-.36.73l-.36.72a14.18,14.18,0,0,1-.91,4.72,40.5,40.5,0,0,1-2.36,5.27,11.19,11.19,0,0,1-3.64,4.18q-9.45,6.54-18.52-2.18Q96.53,184,96,180a50.17,50.17,0,0,1-.55-5.45v-.36a14.72,14.72,0,0,1,.37-2.54,35.92,35.92,0,0,0,.54-4c.12-1.45.18-2.78.18-4a9.56,9.56,0,0,1,.37-2.17q.36-1.45.72-3.09A16,16,0,0,0,98,154.9a1.06,1.06,0,0,1,.36-.73v-.73h-.54c-.13,0-.31.13-.55.37l-1.09,1.09v.72a2.75,2.75,0,0,1-.36,1.09A19.52,19.52,0,0,0,94.17,160a10,10,0,0,0-.9,3.63,1.05,1.05,0,0,0-.37.73c-.24,1.7-.61,3.58-1.09,5.63s-.85,3.94-1.09,5.63a32.9,32.9,0,0,1-.91,6.72c-.6,2.79-1.15,5-1.63,6.72A9.19,9.19,0,0,1,85.64,192a4.89,4.89,0,0,1-4,1.09q-2.17-.36-4.36-3.63A37.54,37.54,0,0,1,74,178.51a69.74,69.74,0,0,1-.72-9.08v-.37c0-1.45,0-2.9.18-4.36s.18-2.78.18-4c0-.48.12-.73.36-.73v-.72l.73-1.82v3.63c0,1.46.06,3.15.18,5.09a34.83,34.83,0,0,0,.55,4.72,31.87,31.87,0,0,0,1.27,6.54,9.85,9.85,0,0,0,2,4A3.47,3.47,0,0,0,82,183.59a3.55,3.55,0,0,0,3.27-1.81,14.84,14.84,0,0,0,2.36-6q.91-4.17,2-7.81l.73-2.9A64.38,64.38,0,0,1,92.18,158a41.58,41.58,0,0,1,4-9.26c1.69-2.9,3.39-4.48,5.09-4.72H102a1.07,1.07,0,0,1,.37.73l-1.09,9.44a67.61,67.61,0,0,1-.55,8.9c-.36,2.79-.54,4.54-.54,5.27a12.68,12.68,0,0,0,0,4.36c.24,1.21.6,2.78,1.09,4.72a13.32,13.32,0,0,0,3.27,4,5.28,5.28,0,0,0,2.9,1.46,11.9,11.9,0,0,0,8.72-.37,18.11,18.11,0,0,0,5.09-4.72A18.62,18.62,0,0,0,123.6,174a8.69,8.69,0,0,0,.91-3.45,38.6,38.6,0,0,0-.55-4c-.36-2.18-.73-4.66-1.09-7.45s-.79-5.26-1.27-7.44q-.73-4.73-1.09-6.54V144c.73-2.66,1.45-5.09,2.18-7.27a1.08,1.08,0,0,1,.73-.36,1.1,1.1,0,0,1,.72.36,8.1,8.1,0,0,1,1.46,2.55,25.82,25.82,0,0,1,1.08,3.27,43.35,43.35,0,0,0,.55,4.72q.54,3.63.91,8c.24,3.15.54,5.94.91,8.35s.54,3.88.54,4.36a20.22,20.22,0,0,0,2,5.45,23.83,23.83,0,0,0,4.54,6.18,3.87,3.87,0,0,0,1.09.72v-1.09q-1.83-11.25-2.73-18.52c-.6-4.84-1-7.75-1.27-8.72L131,144.36a1.55,1.55,0,0,1,0-1.45l2.55-8H134l8,17.8v2.9h-.36L139,153.81c0-.24-.13-.24-.37,0q.36,4.35,2.91,21.07a30.24,30.24,0,0,0,.72,6.53,10.31,10.31,0,0,0,2.55-.36q5.44-1.44,8-4.72V176h.36a2.44,2.44,0,0,0,.55-.91,3.07,3.07,0,0,0,.18-.91.32.32,0,0,0-.36-.36v-.37a3.87,3.87,0,0,1-.73-1.09c-.49-1.21-1.15-2.78-2-4.72s-1.63-4-2.36-6.17q-1.81-5.46-3.27-11.27t-1.82-8l-.72-.72,1.45-7.63v-.55q0-.18.36-.18a1.1,1.1,0,0,1,.73.36l6.9,11.63V148l-2.9-2.17-.73.72h.36v.37a11.13,11.13,0,0,1,.73,2.54c.73,1.7,1.57,3.87,2.54,6.54s1.88,5.14,2.73,7.44a39.78,39.78,0,0,1,1.63,5.27v.73l.37.72v3.09a10.25,10.25,0,0,1-.37,3.09,10.35,10.35,0,0,1-1.63,4.72,34.15,34.15,0,0,1-4,5.63,8.31,8.31,0,0,1-5.27,3.09,10,10,0,0,1-2.18.36q1.1,9.45,2.55,18.17a3.24,3.24,0,0,0,.36,1.45c1.94-1,3.87-2.06,5.81-3.27a38.11,38.11,0,0,0,6.54-3.27h2.18a1.16,1.16,0,0,1,1.09.73,2.8,2.8,0,0,1,.36,1.09,54.87,54.87,0,0,0,.73,8.35q2.91,4.73,6.54,3.63-1.45-10.53-3.63-23.24-2.55-18.54-4.36-33.06-1.83-13.08-1.82-14.17l-1.82-3.27,2.18-8a1.56,1.56,0,0,1,.19-.73.59.59,0,0,1,.54-.36,1.18,1.18,0,0,1,1.09.73l7.27,17.8v2.9L165.92,152h-.37a1.06,1.06,0,0,0-.36.73q.36,4,2.18,16.89t4,28.51q1.8,9.09,2.54,16.71a11.79,11.79,0,0,0,3.63-4,28.82,28.82,0,0,0,4.72-9.45A1.06,1.06,0,0,0,183,201a1.12,1.12,0,0,1,.73.36c.23,5.33,1.27,8.78,3.08,10.36s3.64,2.12,5.45,1.63a6.6,6.6,0,0,0,4.18-3.27,15.44,15.44,0,0,0-.91-3.09,3.1,3.1,0,0,0-1.27-1.63l-.36-.36v-.37l3.63-8.72.36.37a2.69,2.69,0,0,0,.37,1.09,8.56,8.56,0,0,1,1.45,3.27,22.84,22.84,0,0,1,.73,6.17,22.57,22.57,0,0,1-8,15.26,19.55,19.55,0,0,0-2.18.18,10,10,0,0,1-3.26-.18,7.33,7.33,0,0,1-3.46-1.82c-1.09-1-1.76-2.66-2-5.08a5.67,5.67,0,0,0-1.09,1.45,24,24,0,0,1-3.64,6.18,2.17,2.17,0,0,1-1.45,1.45,6.92,6.92,0,0,0,.36,2.18q1.46,12.35,1.82,15.26v.72a1,1,0,0,0,.36.73c0,1,.06,2.12.19,3.45s.18,2.72.18,4.18v3.27c-.25,1.45-.61,3.08-1.09,4.9s-.85,3.33-1.09,4.54a1.17,1.17,0,0,1-1.09.73.58.58,0,0,1-.55-.37,1.57,1.57,0,0,1-.18-.72V255a48.09,48.09,0,0,0-.73-9.26q-.36-2.53-2.54-18.16v-.73h-2.18a6.76,6.76,0,0,1-6.17-2.18,14.93,14.93,0,0,1-3.09-5.63c-.61-2-1-3.69-1.27-4.9a1.09,1.09,0,0,0-.73-.37.46.46,0,0,0-.72,0c-2.18,1.22-4.49,2.43-6.91,3.64l-2.9,1.45q1.44,8,1.81,11.26.74,13.08-.72,20a58.51,58.51,0,0,1-7.27,12.9,74.69,74.69,0,0,1-8,8.53,57.24,57.24,0,0,1-19.25,11.26A28.52,28.52,0,0,1,98.71,284a22.23,22.23,0,0,1-13.8-7.44q-5.09-6.54-6.54-17.8t4.72-32.7l1.82-1.45V225h-.36a25.29,25.29,0,0,1-.73,4.72q-1.09,5.09-2,12.35A50.84,50.84,0,0,0,82,256.25a20.22,20.22,0,0,0,4.18,9.8,17,17,0,0,0,6.9,5.09,39.1,39.1,0,0,0,6.91,2,29.81,29.81,0,0,0,4.17.54,91.43,91.43,0,0,0,9.27-2.18q6.7-1.81,15.25-7.63T146.3,245q-1.45-10.15-3.27-24a6,6,0,0,1-1.45.36l-.36.37h-.37v13.44q-2.55,16-25.43,28.33A24,24,0,0,1,104,266.6a15.86,15.86,0,0,1-11.08-3.82q-5.81-4-7.63-14.53,0-6.54.73-14.89a52.12,52.12,0,0,1,1.82-7.27,12.11,12.11,0,0,0,.36-1.81v-1.09l2.54-1.82v.37h-.36a8.21,8.21,0,0,1-.73,2.54v.36A49.17,49.17,0,0,0,88,233a32,32,0,0,0,.18,9.08,17.46,17.46,0,0,0,5.45,9.62q4,3.47,6.17,4.18a25.46,25.46,0,0,0,4.91.37,20.31,20.31,0,0,0,5.63-.73q3.63-.72,11.44-5.81t15.08-15.26a6,6,0,0,0,1.09-4.36,7.91,7.91,0,0,0-.55-3.09,23.88,23.88,0,0,0-2-3.45v-.36a42,42,0,0,1-5.08.36,31.62,31.62,0,0,1-8-.18,5.83,5.83,0,0,1-4-3.45,10.32,10.32,0,0,1-.73-5.45,31.64,31.64,0,0,1,.91-6.9,28.49,28.49,0,0,1,2.54-7.08,5.54,5.54,0,0,1,5.27-3.09,9.3,9.3,0,0,1,7.09,2.9,21.72,21.72,0,0,1,4.17,6.36,15.28,15.28,0,0,1,1.46,4.9,1.13,1.13,0,0,0,.72,1.09,2.45,2.45,0,0,0,1.82-.72q-1.46-11.27-1.45-11.26S139.76,197.16,139,190.13ZM77.1,134a6.33,6.33,0,0,1,.55-1.64c.23-.48.84-.6,1.81-.36a18.2,18.2,0,0,1,6.18,3.63,6,6,0,0,1,1.81,6.54,3.47,3.47,0,0,1-1.81.73H83.82a2.86,2.86,0,0,0-2,0A4.86,4.86,0,0,0,80.19,144a12.42,12.42,0,0,1-2.91,3.27l-2.54,2.54A8.28,8.28,0,0,0,76,150.9a2.15,2.15,0,0,0,1.27.36q9.07.38,15.62-7.26a15.65,15.65,0,0,1-7.08,8.17,18.3,18.3,0,0,1-10.35,2.36,1.71,1.71,0,0,1-1.82-1.45,5.28,5.28,0,0,1,.36-3.27,7.71,7.71,0,0,1,3.64-4.72,23.85,23.85,0,0,0,2.17-2.54c-1.21.48-2.06.42-2.54-.19a3.28,3.28,0,0,1-.54-2.54,23.63,23.63,0,0,1,.54-3.09v-.36l-.36-.36A10.33,10.33,0,0,1,77.1,134Zm16.17,59.21a5.6,5.6,0,0,1,4.35-3.81,7.23,7.23,0,0,1,2.55,4.9,25,25,0,0,1,0,6,7,7,0,0,1,2.72,2.91,5.06,5.06,0,0,1,.18,4,14.36,14.36,0,0,1-3.27-1.82,2.85,2.85,0,0,1-1.09-.36,29.33,29.33,0,0,1-6.53,9.62,60.41,60.41,0,0,1-9.09,7.09,17,17,0,0,1-3.27,2.54,5.73,5.73,0,0,0-1.45,1.09,6.42,6.42,0,0,1-3.63,1.81q5.08-5.07,10.53-9.8a86.71,86.71,0,0,0,12.35-12.72,5.51,5.51,0,0,1-1.45-1.09,12.73,12.73,0,0,1-2.54-1.63,2.91,2.91,0,0,1-1.09-2.36A14,14,0,0,1,93.27,193.22ZM78,201.76a3,3,0,0,1,1.27-1.27,4.23,4.23,0,0,1,2,.18h.36a17.5,17.5,0,0,1,3.45.54,10.6,10.6,0,0,1,4.18,2,1.23,1.23,0,0,1,.36.91,1.24,1.24,0,0,1-.36.91,19.81,19.81,0,0,1-6.18,6.72q-3.27,2-4.35,2H78l-3.27-.36V213l.36-.37a43.7,43.7,0,0,0,4.54-1.81,15.88,15.88,0,0,0,3.45-2c.73-.6.61-1-.36-1.27a8.49,8.49,0,0,0-2.91-.73,5.94,5.94,0,0,0-2.54.73.58.58,0,0,1-.72.18c-.25-.12-.37-.42-.37-.91A6.36,6.36,0,0,1,78,201.76Zm1.09-65a14.22,14.22,0,0,1-.73,1.28c-.24.36-.12.67.37.9a7.77,7.77,0,0,0,2.54.37h.36A3.75,3.75,0,0,0,79.46,136,1.06,1.06,0,0,0,79.1,136.73Zm6.9,2.55a36.37,36.37,0,0,0-3.27-2.18,4.05,4.05,0,0,1-.36,1.81A17.89,17.89,0,0,0,86,139.28Zm27.43,83.36a4.08,4.08,0,0,1,1.63,2.37,15.54,15.54,0,0,1-1.45,4.72h-.37a9.43,9.43,0,0,0-1.09-1.64,2.88,2.88,0,0,0-1.63-1.09,1.73,1.73,0,0,0-1.63.55,27.89,27.89,0,0,0-2.91,10.9,78.71,78.71,0,0,1-1.82,8.71,24.82,24.82,0,0,1-2.54-5.08A15,15,0,0,0,98,234.45a1,1,0,0,0-.73.36h-.73A8,8,0,0,0,94,232.63l-1.81-.72v-3.09a4.2,4.2,0,0,1,.54-2.18c.36-.6,1-.78,2-.55a9,9,0,0,1,4.9,3.64,18,18,0,0,1,2.36,5.45q1.09,2.17,2.18,4c.24-1.45.49-2.9.73-4.36a83.05,83.05,0,0,1,1.82-8.35,32.71,32.71,0,0,1,1.63-2.91,3.85,3.85,0,0,1,2.36-1.81A4.67,4.67,0,0,1,113.43,222.64Zm-18-24.7a21.22,21.22,0,0,1,2.18,1.27,4.35,4.35,0,0,1,1.09.73v-1.09a8.11,8.11,0,0,0-.36-2.54,3.53,3.53,0,0,0-1.45-1.82,3.19,3.19,0,0,0-1.64.55,5.16,5.16,0,0,0-1.63,1.63A6.71,6.71,0,0,0,95.44,197.94Zm288.61,188.9a5.13,5.13,0,0,1-2-3.09H368.61a18.77,18.77,0,0,1-4,1.09q-5.44-.36-5.45-5.81a15.91,15.91,0,0,1,3.63-9.81H125.6q-25.44,0-29.79-13.44h1.45v-.37H360.62c2.42-.48,4.12-2.41,5.09-5.81q-4,0-4.36-4.36.36-4.35,6.17-5.08a4.66,4.66,0,0,1,3.64,1.63,7.25,7.25,0,0,1,1.45,4.91,18.61,18.61,0,0,1-2.54,8.71h39.59q6.9,0,11.08,4.18a12.89,12.89,0,0,1,4.18,9.26,18.34,18.34,0,0,1-3.27,9.81q-5.1,6.54-12.71,6.54a2.31,2.31,0,0,1-2.18-1.45H393.32a5.54,5.54,0,0,1-1.82,3.09,5.87,5.87,0,0,1-4,1.27A5.52,5.52,0,0,1,384.05,386.84ZM108.89,144.36v-6.9a.31.31,0,0,1,.36-.36,23.33,23.33,0,0,1,7.08,14,22,22,0,0,1-3.45,14.71h-.36a36.78,36.78,0,0,0,.54-12.89c-.6-3.75-1.88-6.23-3.81-7.45A1.44,1.44,0,0,1,108.89,144.36Zm18,63.21q-2-1.09-3.27,0a7.34,7.34,0,0,0-2,2.9c-.49,1.22-.85,2.18-1.09,2.91l11.62.36C130,210.36,128.19,208.3,126.87,207.57ZM143.39,282c.49,0,.73.12.73.36a19.07,19.07,0,0,1-2,5.45,3.48,3.48,0,0,1-3.81,1.81q-3.63-1.08-2.18-7.81c1-4.47,4-9.13,9.08-14q0-.36.18-.36a.56.56,0,0,1,.37.18c.11.12.05.3-.19.54q-4.73,6.91-5.63,10.36t.37,4A3.4,3.4,0,0,0,143.39,282Zm54.49-15.26a8.73,8.73,0,0,0,1.82,5.81c1.21,1.22,3.75,1.45,7.63.73q4-1.1,10.53-6.36a149.26,149.26,0,0,0,11.81-10.53q5.27-5.27,4.9-7.81a14.41,14.41,0,0,1-1.45-4.36q-1.45-6.54-3.82-15.08A60.78,60.78,0,0,0,224,215.56V202.85q2.18,1.46,4.54,6.17t4.18,9.45c.23,1.69.72,4.05,1.45,7.08s1.51,6.24,2.36,9.63a65,65,0,0,1,1.63,8.35,11.33,11.33,0,0,1,.73,3.27v.36l.73,1.09.36-1.09.73-5.08a27.24,27.24,0,0,1,2.9-5.09c1.21-1.69,2.3-3.27,3.27-4.72a51.34,51.34,0,0,1,5.63-5.45,94.68,94.68,0,0,1,9.63-7.26l-1.82-3.64v-5.08a4.48,4.48,0,0,1,1.09-3.27,7.9,7.9,0,0,1,6.18-2.91,14.71,14.71,0,0,1,7.26,1.82,38.54,38.54,0,0,1,4.73,4,3.33,3.33,0,0,1,.72,3.64,16.54,16.54,0,0,1-1.45,2.9,3.53,3.53,0,0,0-.73,1.82.32.32,0,0,1-.36.36h-.36v.37c-.49.24-1.28.6-2.36,1.09l-3.27,1.45a19.81,19.81,0,0,0-2.73,1.45,4.35,4.35,0,0,0-1.09.73h-.36a5,5,0,0,0,.18,1.09,2.05,2.05,0,0,1-.18,1.45c-.25.49-.55,1-.91,1.64a4.67,4.67,0,0,1-2,1.63,4.51,4.51,0,0,0,.18-2.18,6.55,6.55,0,0,0-.54-1.82,1,1,0,0,1-.36-.72,101.35,101.35,0,0,0-8.72,6,42.2,42.2,0,0,0-8,8.54v.36a.58.58,0,0,0,.36.55,1.61,1.61,0,0,0,.73.18q22.88,0,32.69-.55t11.62-.9c.49,0,.73.06.73.18v.54a11.1,11.1,0,0,0-1.64,2.36,26.32,26.32,0,0,1-2,3.09,4.4,4.4,0,0,0-1.09,2.18A45.5,45.5,0,0,0,276,251a79.06,79.06,0,0,0-13.26,6.36,48,48,0,0,0-7.81,5.44c.49,1.7,1.82,3.45,4,5.27a25.63,25.63,0,0,0,6.9,4.18V281q-9.07-.36-14.71-4.18a46,46,0,0,1-8.54-7.08,14.71,14.71,0,0,1-3.08-4.91c-.86-2-1.58-4-2.18-5.81s-1.16-3.45-1.64-4.9a1.48,1.48,0,0,0-.36-1.09v-.73a28.88,28.88,0,0,1-.55,4.18,20.24,20.24,0,0,1-3.08,7.08,76.88,76.88,0,0,1-7.45,8.72,50.66,50.66,0,0,1-10.35,8.35q-11.26,5.82-14.9.73-4-4.37-3.63-12.71a64.23,64.23,0,0,1-17.07,10.89Q157.2,282.4,150.66,282h-1.09l.73-1.46H151c.73-.23,1.94-.6,3.64-1.09v-.36c2.41-1,5.5-2.12,9.26-3.45s7.32-2.78,10.71-4.36a74.15,74.15,0,0,0,8-4.18,157.37,157.37,0,0,0,15.62-10.89c.72-1.46,1.32-2.79,1.81-4a23.29,23.29,0,0,1,.73-3.27h.36v-.36l.73,1.45a22.89,22.89,0,0,0-1.09,3.27,2.12,2.12,0,0,0-.36,1.45A9.58,9.58,0,0,1,203,253q11.63-8.73,16.35-14.17a14.88,14.88,0,0,1-3.82-5.45q-1.63-3.63-3.45-7.81t-2.91-7.08a15.25,15.25,0,0,1-.72-2.55v-.72l-1.09-.73,1.09-9.81h.36L220,217l.37,2.91L215.68,217v2.91l.37.73a21.63,21.63,0,0,0,1.27,2.9c.6,1.22,1.14,2.43,1.63,3.63s.85,2.18,1.09,2.91a16.41,16.41,0,0,1,1.09,5.81,25.19,25.19,0,0,1-.36,4.73v1.09a26.53,26.53,0,0,1-6.36,10.53,94.12,94.12,0,0,1-10.71,9.44q-1.83,1.83-4,3.64Zm-35.6-6.9a1.07,1.07,0,0,1,.37.72,14.69,14.69,0,0,1-2.73,6.54q-2,2.55-3.81,2.18c-2.67-1-3.63-4.23-2.91-9.81s4.24-11.13,10.54-16.71h.54a.58.58,0,0,1,.37.19c.11.12,0,.18-.19.18q-5.09,7.62-6.17,11.8t.36,5.45q1.46,1.27,3.27-.18Q161.92,259.52,162.28,259.88ZM193.16,133.1a2.45,2.45,0,0,1,1.09,1.09,3.87,3.87,0,0,0,.73,1.09,8.62,8.62,0,0,1,2.36,4.36,5.33,5.33,0,0,1-1.27,4.72,5.87,5.87,0,0,1-3.64-1.09A25.52,25.52,0,0,1,180.81,152a20.87,20.87,0,0,0-3.63,1.09,14.35,14.35,0,0,1-5.09,1.82q2.53-1.46,5.45-2.91a60.17,60.17,0,0,0,9.81-6.17,9.78,9.78,0,0,0,3.63-3.27l-.36-.37a3.55,3.55,0,0,1-1.82-.72,3.6,3.6,0,0,1,.36-2.73c.49-.84,1-1.75,1.46-2.72a18.32,18.32,0,0,0,.36-2.18l.36-.73A2.37,2.37,0,0,1,193.16,133.1Zm62.48,12V148l-3.27-2.54-.36,1.09v.37c.24.48.6,1.21,1.09,2.17.72,1.95,1.51,4.18,2.36,6.72s1.69,5,2.54,7.27a39.71,39.71,0,0,1,1.64,5.27v1.81a13.44,13.44,0,0,1,0,6.18,12.41,12.41,0,0,1-1.46,4.54,25.3,25.3,0,0,1-3.81,5.81,8.52,8.52,0,0,1-5.63,3.09,14.27,14.27,0,0,1-7.08.36,12.64,12.64,0,0,1-4.55-1.81c-1.21-.73-2.66-2.36-4.35-4.91a20.56,20.56,0,0,1-3.27-8.17v1.45a28.61,28.61,0,0,1-1.27,4.72,39.31,39.31,0,0,1-2.37,5.27,10.25,10.25,0,0,1-4,4.18q-9.45,6.54-18.53-2.18a22.78,22.78,0,0,1-4-8.72,17.22,17.22,0,0,1-.37-5.81v-.36c0-.24.06-1,.18-2.18s.24-2.55.37-4a18.32,18.32,0,0,1,.91-4.36v-1.81a17,17,0,0,1,.36-3.27,17,17,0,0,0,.36-3.27l.37-1.09c0-.24-.07-.37-.19-.37H201c-.12,0-.24.13-.36.37a2,2,0,0,1-.91.72v.73a1.49,1.49,0,0,0-.36,1.09,13.09,13.09,0,0,0-1.82,3.45,34.13,34.13,0,0,0-1.09,3.45v1.09a36.2,36.2,0,0,0-1.27,5.27c-.36,2.06-.67,3.94-.91,5.63-.24,1.94-.61,4.3-1.09,7.08a30.86,30.86,0,0,1-1.82,6.72,7.59,7.59,0,0,1-2.54,2.73,5.21,5.21,0,0,1-4,.91q-2.19-.36-4-3.27a41.84,41.84,0,0,1-3.45-10.9,56.56,56.56,0,0,1-.91-9.08v-.73c0-1.45.06-2.91.18-4.36a33.45,33.45,0,0,1,.55-4v-1.46l1.09-1.45h.36v13.44a19.26,19.26,0,0,0,1.64,6.36,26.08,26.08,0,0,1,1.63,4.17,4.1,4.1,0,0,0,3.45,2,4,4,0,0,0,3.81-2,50,50,0,0,0,3.64-13.8,4.94,4.94,0,0,1,1.09-2.54,53.21,53.21,0,0,1,2-7.09,82.34,82.34,0,0,1,3.81-9.44c1.45-3,3.14-4.54,5.09-4.54h1.08v.36c0,.25-.06,1.27-.18,3.09a61.92,61.92,0,0,1-.9,6.72q-.37,4.72-.91,8.9c-.37,2.79-.55,4.54-.55,5.27,0,1.69.06,3.15.18,4.36a19.77,19.77,0,0,0,1.28,4.72,8.06,8.06,0,0,0,3.08,3.81,11.74,11.74,0,0,0,11.81,1.27,16.67,16.67,0,0,0,5.08-5.08,7.62,7.62,0,0,0,2-3.63c.37-1.46.67-2.55.91-3.27a11.54,11.54,0,0,0,0-4.18c-.24-2.06-.67-4.48-1.27-7.27a67.49,67.49,0,0,1-1.27-7.81q-.74-4.35-1.09-6.17a3.24,3.24,0,0,1,.36-1.45,20.83,20.83,0,0,1,2.18-7.27c0-.24.24-.36.73-.36v.36a17,17,0,0,1,1.45,2.91c.48,1.21.85,2.18,1.09,2.9a43,43,0,0,1,.73,5.09c.23,2.42.6,5.08,1.09,8,.23,3.15.48,5.94.72,8.35a17.62,17.62,0,0,0,.73,4.36,20.3,20.3,0,0,0,1.82,5.27,21.13,21.13,0,0,0,4.35,6q3.63,2.55,9.27,1.46t8.17-4.36V176a3,3,0,0,1,.18-.91,4.1,4.1,0,0,0,.18-1.27.33.33,0,0,0-.36-.37,3.27,3.27,0,0,0-.36-1.45c-.49-1-1.15-2.48-2-4.54s-1.76-4.18-2.72-6.36a110.73,110.73,0,0,1-3.27-10.9,40,40,0,0,1-1.46-8l-1.09-.72,1.46-7.63c0-.48.05-.73.18-.73h1.27ZM195.34,241c.48.24.73.49.73.73a22.11,22.11,0,0,1-2.36,6.53c-1.09,1.94-2.37,2.79-3.82,2.55q-4.35-1.81-3.27-10.17t10.9-16.71c.24-.24.36-.31.36-.19a.52.52,0,0,0,.18.37q.18.18-.18.18-5.08,7.62-6,11.8t.54,5.64C193.4,242.69,194.37,242.44,195.34,241Zm-4.9-101.89a4,4,0,0,0,1.27.18q.72.36.72.72c0-.48.12-.72.37-.72v-1.82a3,3,0,0,0-2.91,1.09C189.89,138.79,190.07,139,190.44,139.1Zm3.45-.19a2.12,2.12,0,0,1-.37,1.46,1.06,1.06,0,0,1,.73.36,2.5,2.5,0,0,0,.73.54,2.36,2.36,0,0,0,1.09.19,6.55,6.55,0,0,0-2.18-3.27Zm21.79,25.43h-.36a46.64,46.64,0,0,0,.36-12.89c-.49-3.76-1.81-6.24-4-7.45a1.44,1.44,0,0,1-.37-1.09V136c.24-.24.37-.24.37,0a18.57,18.57,0,0,1,7.08,13.44A27.39,27.39,0,0,1,215.68,164.34Zm19.26,117c.23,0,.36.06.36.18V282a13.28,13.28,0,0,1-1.64,5.08,3.49,3.49,0,0,1-3.81,1.82q-3.63-1.1-2.18-7.81c1-4.48,4-9.14,9.08-14,.48,0,.73.13.73.37-3.4,4.6-5.39,8.05-6,10.35s-.48,3.69.37,4.18S233.72,282.28,234.94,281.31Zm8.71-137.67c.24,1.45.49,2.85.73,4.17a5.63,5.63,0,0,1-1.09,4.18,2.46,2.46,0,0,1-1.82.73,3.62,3.62,0,0,1-1.27-1.09,6.31,6.31,0,0,1-.91-1.82,4.42,4.42,0,0,1-.9,2.91,2.64,2.64,0,0,1-2,1.09,2.94,2.94,0,0,1-2.18-1.46,1,1,0,0,1-.36-.72v-2.18a5.06,5.06,0,0,0-.37-3.27.78.78,0,0,1,.18-.55.74.74,0,0,0,.19-.54v-.36l.72-.73a1.05,1.05,0,0,1,.37-.73,3,3,0,0,1,.36,1.82v2.54a10,10,0,0,0-.36,1.82,1.68,1.68,0,0,0,1.27,1.27,2,2,0,0,0,1.63-.36,1.6,1.6,0,0,0,.73-1.28,3.75,3.75,0,0,0-.37-2.9v-2a2.23,2.23,0,0,1,.73-1.63,3.33,3.33,0,0,1,.91,1.81,14.16,14.16,0,0,0,.54,2.18v.73a3.85,3.85,0,0,0,1.28,2.18,1.09,1.09,0,0,0,1.63,0,6.73,6.73,0,0,0-.73-3.63,3.28,3.28,0,0,1-.36-1.46,4.4,4.4,0,0,1,1.09-2.18A3.28,3.28,0,0,0,243.65,143.64Zm5.45,67.2a15.46,15.46,0,0,1,1.46,4.72,4.6,4.6,0,0,1-1.82,4.36,2.45,2.45,0,0,1-2.18,1.09c-.49-.48-1-1-1.45-1.45a4.5,4.5,0,0,1-1.09-1.82,4.61,4.61,0,0,1-.91,2.72,3.31,3.31,0,0,1-2.36,1.46,2.69,2.69,0,0,1-2.55-1.27,1.48,1.48,0,0,0-.36-1.09V217a7.49,7.49,0,0,0,0-3.27v-1.45l.36-.36v-1.09c.24,0,.49-.24.73-.73a3,3,0,0,1,.73,2.18v2.91c-.49,1-.61,1.58-.37,1.81.24,1,.67,1.52,1.28,1.64a2.47,2.47,0,0,0,1.81-.37,2.88,2.88,0,0,0,1.27-1.63,9.58,9.58,0,0,0-.36-2.91,15.22,15.22,0,0,1-.36-2.72,2,2,0,0,1,1.09-1.63,3.42,3.42,0,0,1,.9,2,17.1,17.1,0,0,1,.19,2.36,2.75,2.75,0,0,0,.36,1.09,4.42,4.42,0,0,0,1.45,2.37,1.45,1.45,0,0,0,2.18-.19,9.3,9.3,0,0,0-1.09-3.63,5.38,5.38,0,0,1-.72-2.18c0-.48.48-1.21,1.45-2.18A6,6,0,0,0,249.1,210.84ZM264.72,249,240,250.07a18.1,18.1,0,0,0,2.18,8,30.55,30.55,0,0,0,4.9,7.27c1.82,1.94,3.21,2.66,4.18,2.18q.72-5.81,2-8.18a22,22,0,0,1,3.81-4.9,33.37,33.37,0,0,1,5.09-3.63c1.69-1,2.78-1.58,3.27-1.82h-.73Zm.18-68.47a5,5,0,0,1,3.45-3.09,5.36,5.36,0,0,1,2,4c.12,1.7.18,3.27.18,4.73a3.24,3.24,0,0,1,2.18,2.18,9.15,9.15,0,0,1,0,3.63,23,23,0,0,0-2.54-1.45,1.06,1.06,0,0,0-.36-.73,30.63,30.63,0,0,1-5.81,7.81,48.16,48.16,0,0,1-7.27,5.63l-2.54,2.18a4.45,4.45,0,0,1-1.09.73,6.39,6.39,0,0,1-2.91,1.81,85.86,85.86,0,0,1,8.36-8,67,67,0,0,0,9.8-10.53,2.66,2.66,0,0,1-1.08-.37,24.09,24.09,0,0,1-2-1.45,2.61,2.61,0,0,1-.91-2.18A9.6,9.6,0,0,1,264.9,180.51Zm5.27,32.69c-1.21-.36-2.42-.66-3.63-.91a3.92,3.92,0,0,0-3.27.73,9.45,9.45,0,0,1,1.09,2.18,18.73,18.73,0,0,0,1.09,2.54h.36a4.35,4.35,0,0,1,1.09-.73c.48-.23,1.27-.6,2.36-1.09a17.13,17.13,0,0,1,3.45-1.09A4.44,4.44,0,0,0,270.17,213.2Zm-3.27-78.28a4.17,4.17,0,0,1,1.45-1.46,4.24,4.24,0,0,1,1.82-.36,12.07,12.07,0,0,1,3.63.73,18.32,18.32,0,0,1,4.36,2.18v1.81a19.7,19.7,0,0,1-6.17,6.72c-2.18,1.34-3.76,2-4.72,2h-.37l-2.9-.36c-.25,0-.37-.06-.37-.18s.12-.18.37-.18v-.37a33.43,33.43,0,0,0,4.35-1.81,30.39,30.39,0,0,0,3.27-1.82c.73-.48.73-1,0-1.45a16.41,16.41,0,0,0-3.08-.37,11.43,11.43,0,0,0-2.73.37.59.59,0,0,1-.72.18.58.58,0,0,1-.37-.55A7,7,0,0,1,266.9,134.92Zm25.79,66.47-5.08-6.54-5.45-6.9a40.43,40.43,0,0,1-3.63-4.72q-2.55-3.63-5.45-7.81t-4.91-7.26c-1.33-2.06-2.12-3.21-2.36-3.46-.24-.48-.49-.9-.72-1.27a1.69,1.69,0,0,1-.37-.9c0-.24-.24-.37-.72-.37h-.37l.73-10.53a1.08,1.08,0,0,1,.36-.73h.73l14.17,13.8a.33.33,0,0,1,.36.37v1.45l-5.09-.73a1.05,1.05,0,0,0-.72.37v1.09a29.32,29.32,0,0,1,4.36,5.08c2.18,2.91,4.59,5.94,7.26,9.08a62.42,62.42,0,0,0,5.45,8q-2.55-16-4-27.61l-2.18-14.53L284,144l1.82-8c.24-.49.48-.73.73-.73a1.17,1.17,0,0,1,1.09.73l7.26,17.8v2.54l-3.27-3.27v-.36a1,1,0,0,0-.72.36.45.45,0,0,0,0,.73q.72,3.63,2.54,16.71,1.09,11.26,3.27,25.79l2.18,2.18Q304,205,308,209.75a16,16,0,0,0,3.27,4q1.44,1.45,2.91,3.27c1.2,1.46,2.54,3,4,4.73a24.08,24.08,0,0,1,3.27,4.72,53.89,53.89,0,0,1,4.72,8.72,48,48,0,0,1,.37,6.54v6.53a.33.33,0,0,1-.37.37,1,1,0,0,1-.72-.37,25.48,25.48,0,0,0-1.82-7.26,36.48,36.48,0,0,0-5.81-10.17,46.8,46.8,0,0,1-6-6.72q-3.81-4.9-7.62-9.08a35.21,35.21,0,0,1-4.55-5.63,2.33,2.33,0,0,0-1.08-1.09q1.44,10.53,2.9,18.88,1.45,12.72,1.82,15.62v1.09a37,37,0,0,1,.54,3.82c.12,1.33.18,2.67.18,4v3.46c-.24,1.21-.6,2.78-1.09,4.72s-.85,3.51-1.09,4.72a1.48,1.48,0,0,1-1.09.36.64.64,0,0,1-.72-.72v-8.18c0-3.75-.13-6.84-.37-9.26q-.72-2.9-2.9-18.16-1.83-12.34-1.82-12.35S294.15,211.33,292.69,201.39Zm-6.54,69a19.76,19.76,0,0,1,1.82-2.9,3.46,3.46,0,0,1,2.91-1.46,7.07,7.07,0,0,1,1.81,4.18,6.89,6.89,0,0,1-1.09,4.9,5.3,5.3,0,0,1-2.72-.72,25.32,25.32,0,0,1-2.73-1.82,14.55,14.55,0,0,1-4.9,6.54c-2.06,1.45-4.06,2.79-6,4a22.66,22.66,0,0,1-8,2.9l-3.64.73a77.41,77.41,0,0,1,7.63-4A49.28,49.28,0,0,0,284,274,8.94,8.94,0,0,0,286.15,270.41Zm-19.61-86.09a14.06,14.06,0,0,0,1.81.73l1.46.72a2.64,2.64,0,0,1-.37-1.09,6.47,6.47,0,0,1-.54-1.81,1.88,1.88,0,0,0-.91-1.46,2.41,2.41,0,0,0-1.45.55,3.53,3.53,0,0,0-1.09,1.27A2.31,2.31,0,0,0,266.54,184.32Zm22.7,42.5a.56.56,0,0,1,.37.18.82.82,0,0,1,.18.55,19.06,19.06,0,0,1-2.18,5.27c-1,1.57-2.18,2.24-3.64,2q-3.63-1.44-2.17-8.17T290.88,213h.54a.16.16,0,0,1,.18.18v.54c-3.39,4.36-5.39,7.7-6,10s-.49,3.7.36,4.18,1.88.25,3.09-.73C289.06,227,289.12,226.82,289.24,226.82Zm1.64,44.68a2.42,2.42,0,0,0-1.27-1.81,2,2,0,0,0-1.64,0A8.52,8.52,0,0,0,290.88,271.5Zm67.56-34.87q-.74-5.81-1.45-12-2.55-17.07-4.9-34.87t-4.36-30q-2-12.17-2.36-13.26l-.73-.72,1.82-9.81a1.14,1.14,0,0,1,1.08-.73c.24,0,.37.24.37.73l8,18.52-.36,2.91-2.18-2.91H351.9v.37q.74,3.63,2.73,19.07t4.9,34.69q1.82,14.53,3.63,26.52h2.91a10.22,10.22,0,0,1,2.36,2.36,26.55,26.55,0,0,1,3.45,6.35,45.38,45.38,0,0,0,1.82,4.36,21.64,21.64,0,0,0,1.45,4.36,18.55,18.55,0,0,0,1.82,2.91,5.35,5.35,0,0,0,2.18,2.36,6.79,6.79,0,0,0,4,1.27,22.84,22.84,0,0,0,5.09.18,25,25,0,0,0,4-.54,9.45,9.45,0,0,0,3.63-3.27,42.73,42.73,0,0,0,2.54-4.36v-5.63a8.85,8.85,0,0,0-.36-2.73q-.37-1.8-2.36-16t-4.54-32.69c-.49-3.39-.86-6.78-1.09-10.17-1.22-1.46-2.18-2.66-2.91-3.64q-5.44-6.88-7.27-8.71-4-5.09-9.62-13.26t-8.54-12.9l-.72-.36.72-9.08a1,1,0,0,1,.37-.73h.36a.32.32,0,0,1,.36.36L377,149.08l.36.37a.73.73,0,0,1-.18.54.71.71,0,0,1-.54.18h-5.09v.73h.36v.36a9.93,9.93,0,0,0,1.82,2.18q1.82,2.55,4.36,6c1.69,2.3,3.39,4.54,5.08,6.72a53.49,53.49,0,0,0,4,4.72,5.91,5.91,0,0,1,1.09,1.45,74.66,74.66,0,0,0-1.45-10.89L385,146.91l-1.09-.37,1.82-11.26h1.09l8,19.25v2.91l-2.91-3.27h-.72v.36a34.19,34.19,0,0,0,.72,4.36V160a2.14,2.14,0,0,1,.37,1.46v1.45h.36v2.9H393A107.52,107.52,0,0,0,394.77,180q3.27,4,6.54,7.63,4,4.72,5.45,6.9,1.44,1.45,3.26,3.63v-1.45q-2.53-17.79-4.54-32.15t-2.72-16.89v-.36l-.36-.73q-.37,0,0-.72l1.45-10.18.36-.36h.37a.33.33,0,0,1,.36.36l8,18.53v.36c0,.73-.18,1.16-.54,1.27a1.6,1.6,0,0,1-1.28-.18l-1.45-1.45h-.36l6.9,51.22q3.27,4,6.54,7.63c3.14,3.87,5.2,6.3,6.17,7.26q7.27,7.64,9.45,15.62a15.45,15.45,0,0,1,.36,3.64v9.8c-.49,0-.72-.12-.72-.36l-.37-3.27v-.36q-.74-2.53-1.45-5.09v-.36a19.3,19.3,0,0,0-2-4.18,43.89,43.89,0,0,0-3.81-4.9,20.87,20.87,0,0,1-4.73-4.73c-1.94-2.41-4-5-6.17-7.62a6.57,6.57,0,0,1-1.82-1.82L419.47,229v.36a.32.32,0,0,0,.36.37,15.13,15.13,0,0,0,.18,2,17,17,0,0,1,.19,2.36v10.17a27.26,27.26,0,0,1-.73,6.54,23.24,23.24,0,0,1-1.45,4.36l-.37.72-.36.37h-.36v-3.46c0-1.09-.07-2.29-.18-3.63s-.19-2.6-.19-3.81v-2.18q-.36-1.46-2.18-15.26-1.08-8.35-2.54-18.16l-2.18-2.18q-4.35-5.08-5.45-6.54-1.45-1.09-6.54-7.63L396.22,192a2.8,2.8,0,0,0,.36,1.09q2.19,15.26,3.64,27.24c1,8,1.57,12.48,1.81,13.44a64.48,64.48,0,0,1,.37,7.63,19.5,19.5,0,0,1-.19,2.73,16.89,16.89,0,0,0-.18,2.36,1.06,1.06,0,0,0-.36.72v.73a28.63,28.63,0,0,1-2,8.9,27.09,27.09,0,0,1-5.27,9.26,9.75,9.75,0,0,1-5.08,3.45,9.23,9.23,0,0,1-4,.19h-.72a21.2,21.2,0,0,1-2.91-.37,12.76,12.76,0,0,1-4.72-2,8.89,8.89,0,0,1-3.63-4.54,57.49,57.49,0,0,1-3.09-6.35q-1.28-3.09-2-5.27a9.9,9.9,0,0,1-.73-2.18,10,10,0,0,0-.9-1.45,18.45,18.45,0,0,0-1.64-1.82h-.36q1.81,13.08,1.81,15.62a53.38,53.38,0,0,1,.37,11.08A59.37,59.37,0,0,1,365,284.22a.73.73,0,0,0-.54.18.78.78,0,0,1-.55.18q-.36,0-.36-.18v-5.63c0-2.42-.06-5-.18-7.81a37.34,37.34,0,0,0-.91-7.09q-.37-2.17-1.82-12.71c-.24-1.94-.49-3.75-.72-5.45a3.38,3.38,0,0,0-1.46.36,13.88,13.88,0,0,0-4.36,2.91q-3.63,4.72-8.71,17.07a46.08,46.08,0,0,1-1.09,4.73,64.15,64.15,0,0,1-5.09,12.71,25.65,25.65,0,0,1-1.82,3.63,22.29,22.29,0,0,1-2.72,3.63,4.65,4.65,0,0,1-3.45,1.82c-3.15-.48-6.06-2.91-8.72-7.26A33.59,33.59,0,0,1,320.3,278a25.61,25.61,0,0,1-1.45-5.45,14,14,0,0,1-3.27,1.82q-6.18,3.63-21.8,6.17l-.36-.36v-.73a65.68,65.68,0,0,1,7.81-4.17,99.44,99.44,0,0,0,14-8.54,10,10,0,0,1,2.91-2.54,52.53,52.53,0,0,1,0-8.72q.36-5.09.73-5.81l1.45-1.09-.36,1.09c0,1.21-.13,3.15-.37,5.81a36.6,36.6,0,0,0,0,7.26,105.13,105.13,0,0,0,8.36-9.44,32.47,32.47,0,0,0,3.45-7.45,13.37,13.37,0,0,0,.18-4.9,25.8,25.8,0,0,0-.36-4.54,22.66,22.66,0,0,1-.36-4.18,60.18,60.18,0,0,1-1.46-7.26l-11.26-78.1-1.09-.73,1.82-10.9a1,1,0,0,1,.72-.36.33.33,0,0,1,.37.36l8,18.89v2.91L325,154.17a.32.32,0,0,0-.36-.36.76.76,0,0,0-.55.18.75.75,0,0,0-.18.54l10.54,71.93v5.45a99.2,99.2,0,0,1,0,12,42.51,42.51,0,0,1-5.45,17.8c-1.45,1.95-2.67,3.64-3.63,5.09q-1.83,1.82-4.36,4c.48,1,1,1.94,1.45,2.9q1.81,4.36,3.63,5.81a6.59,6.59,0,0,0,2.36,2,3.13,3.13,0,0,0,3.09.18,7.3,7.3,0,0,0,3.09-2.36,8.52,8.52,0,0,0,1.63-3.09,28.27,28.27,0,0,0,2-4q1.28-2.91,2.73-7.27l4-10a30.25,30.25,0,0,1,2.91-6q5.44-10.17,9.81-12Zm-56.3-101.71c.24-.73.6-1.15,1.09-1.27a7.61,7.61,0,0,1,1.81-.19h.37a12.13,12.13,0,0,1,3.63.73,20.57,20.57,0,0,1,4,1.82,1.27,1.27,0,0,1,.36.91v1.27a21.83,21.83,0,0,1-6.36,6.54,10.66,10.66,0,0,1-4.9,1.81h-2.91a1,1,0,0,1-.36-.72h.36l4.36-2.18a32.52,32.52,0,0,0,3.27-1.82c.73-.48.73-.85,0-1.09a9,9,0,0,0-3.27-.73,4.49,4.49,0,0,0-2.54.73,1.61,1.61,0,0,1-.73-.18A.58.58,0,0,1,300,140C299.71,138.31,300.44,136.61,302.14,134.92ZM313,164.34a28.92,28.92,0,0,1,1.09,4.54,6.34,6.34,0,0,1-1.09,4.54,4.46,4.46,0,0,1-2.55.73,1.77,1.77,0,0,1-1.63-.91,9.38,9.38,0,0,1-.91-2A4.66,4.66,0,0,1,307,174a3.31,3.31,0,0,1-2.36,1.45,2.65,2.65,0,0,1-2.54-1.27v-.73a5.61,5.61,0,0,1,0-2.9,15.39,15.39,0,0,0-.37-3.64v-1.09l.37-.36v-.73a1.18,1.18,0,0,1,.72-1.09,3,3,0,0,1,.73,2.18,12,12,0,0,1-.36,2.91,9.63,9.63,0,0,0-.37,2.18,2.31,2.31,0,0,0,1.46,1.09,2.78,2.78,0,0,0,2.18-.18,1.77,1.77,0,0,0,1.09-1.64,13.62,13.62,0,0,0-.37-3.27,6.87,6.87,0,0,1-.36-2.18,2.13,2.13,0,0,1,1.09-1.81,5.91,5.91,0,0,1,.91,2,12.5,12.5,0,0,1,.18,2.36,1.48,1.48,0,0,0,.36,1.09,2.39,2.39,0,0,0,1.09,2.36,2.79,2.79,0,0,0,2.55-.18,9.53,9.53,0,0,0-1.09-3.64,3.62,3.62,0,0,1-.73-2,3.94,3.94,0,0,1,1.45-2.36A4,4,0,0,1,313,164.34Zm4.54,32.33c.12,0,.3.25.54.73a42.45,42.45,0,0,1-2.36,5.26q-1.27,2.37-3.45,2-4-1.44-2.54-8.17t9.44-13.62c0-.24.06-.37.18-.37a.17.17,0,0,1,.18.19v.54q-4.72,6.54-5.63,10.17t.37,4.18a3.38,3.38,0,0,0,3.08-.55C317.39,196.8,317.45,196.67,317.58,196.67Zm14.71-61.75a2.69,2.69,0,0,1,1.45-1.27,9.62,9.62,0,0,1,2.18-.19,13.62,13.62,0,0,1,3.45.73,19.3,19.3,0,0,1,4.18,1.82,2.23,2.23,0,0,1,.54.91,1.67,1.67,0,0,1-.18,1.27,18,18,0,0,1-6.17,6.54q-3.27,1.82-4.73,1.81h-3.63a1,1,0,0,1-.36-.72h.36c1.46-.73,3-1.46,4.54-2.18a26.79,26.79,0,0,0,3.45-1.82c.73-.48.61-.85-.36-1.09a8.49,8.49,0,0,0-2.91-.73,5.94,5.94,0,0,0-2.54.73.73.73,0,0,1-.54-.18c-.13-.12-.31-.3-.55-.55A6.36,6.36,0,0,1,332.29,134.92Zm10.17,50v.54a13.75,13.75,0,0,1-2.18,6.36c-1.22,1.81-2.54,2.6-4,2.36-2.9-1.21-3.94-4.54-3.08-10s4.54-11,11.08-16.53c0-.24.05-.3.18-.18l.36.36c.12.13.06.18-.18.18q-5.1,7.64-6.18,11.81c-.72,2.79-.67,4.67.19,5.63s2,.73,3.45-.73C342.33,184.68,342.46,184.75,342.46,184.87Zm5.45,43.4c.48,0,.72.13.72.37a17.39,17.39,0,0,1-2.54,6.35q-1.81,2.73-3.63,2.73-4.36-1.82-3.27-10.17t10.9-16.71h.36v.36q-5.08,7.63-6,12t.18,5.63Q345.74,230.09,347.91,228.27Zm8,49.41c.48.24.73.49.73.72a17.63,17.63,0,0,1-2.55,6.36q-1.81,2.73-4,2.36c-2.91-1-3.94-4.18-3.09-9.62s4.54-11.08,11.08-16.9c0-.23.06-.3.18-.18a.78.78,0,0,1,.18.55q-5.08,7.62-6,12c-.61,2.9-.49,4.72.36,5.44S354.68,278.89,355.9,277.68ZM373,192.31a.33.33,0,0,1,.37.37,17.58,17.58,0,0,1-2.55,6.35q-1.82,2.73-4,2.73-4-1.45-2.91-9.81t10.54-17.07c.23-.24.42-.3.54-.19a.56.56,0,0,1,.18.37v.54q-5.08,7.28-6,11.63t.36,5.63c.85.85,1.76.67,2.73-.55Zm37.24,187.08a3.67,3.67,0,0,0,1.63-3.27,14.4,14.4,0,0,0-.36-2,5.37,5.37,0,0,0-2.73-3.09,13,13,0,0,0-4.36-1.81q-2-.36-17.61-.37t-16.35.73a11.43,11.43,0,0,0-4.36,5.45q4.37.74,4.36,4.72v1.46h11.62a7.8,7.8,0,0,1,2.18-3.46,4.88,4.88,0,0,1,3.27-1.27q4.72,0,5.82,4.73h14.89A6,6,0,0,1,410.21,379.39ZM378.06,214.11v-6.9c0-.24.06-.37.18-.37h.54q6.54,6.18,7.09,14a25.29,25.29,0,0,1-3.45,14.71h-.37a36.62,36.62,0,0,0,.55-12.9q-.92-5.62-4.18-7.44A1.48,1.48,0,0,1,378.06,214.11Zm9.81,163.83a4.65,4.65,0,0,0-2.73.9,2.79,2.79,0,0,0-1.27,2.37h8A3.73,3.73,0,0,0,387.87,377.94Zm2.9,6.53a2.33,2.33,0,0,0,1.09-1.08h-8a4,4,0,0,0,4,2.54A3.41,3.41,0,0,0,390.77,384.47Zm23.61-115.15a11.68,11.68,0,0,0-2.54.73l-1.82.73-.72.36c-.25.24-1.45,1.33-3.63,3.27l-.73.72h-.73A4.47,4.47,0,0,1,405.3,273a7.13,7.13,0,0,1,1.82-2.55l.73-.36q-2.55,0-2.91-.36c-1.22,0-1.94-.37-2.18-1.09a10.06,10.06,0,0,1,1.09-5.82c1.45-2.41,3.27-3.75,5.45-4a2.71,2.71,0,0,1,3.27,1.81l-1.46,3.27-1.09-.72a2.88,2.88,0,0,0-1.08-.37h-2.18c0,.25-.25.49-.73.73a2.09,2.09,0,0,0-.73,1.45c.24.73,1.33,1.09,3.27,1.09l3.27-.36h1.82l2.18-.36Zm25.43-114.79v2.91l-2.18-2.91-.72-.36c-.25.24-.43.36-.55.36h.18l10.17,72.29v5.45q0,5.44-.36,12a36.4,36.4,0,0,1-5.09,17.43l-3.63,5.45a69.06,69.06,0,0,1-9.81,8Q421.64,278.4,406,281a1,1,0,0,1-.73-.37v-.36l.37-.36,7.81-4a96.72,96.72,0,0,0,13.8-8.9,61,61,0,0,0,12.9-13.26,56,56,0,0,0,3.26-7.44,15.29,15.29,0,0,0,.73-4.54c-.24-1.94-.49-3.58-.73-4.91s-.48-2.72-.72-4.18q-.37-2.53-1.09-7.26l-10.9-78.1-1.45-.73L430.73,136c0-.24.24-.49.73-.73h.36c.24,0,.36.24.36.73Zm-24.7-20a5.56,5.56,0,0,1,1.64-1.27,5.49,5.49,0,0,1,1.63-.18h.36a15.31,15.31,0,0,1,3.64.55,8.54,8.54,0,0,1,4,2.36c.24,0,.42.18.55.54a1.67,1.67,0,0,1-.19,1.27,24.27,24.27,0,0,1-6.35,6.72c-2.06,1.34-3.58,2-4.54,2h-.73l-2.91-.72c-.24,0-.36-.06-.36-.19s.12-.18.36-.18h.37q2.18-1.08,4.36-2a12.89,12.89,0,0,0,3.27-1.81c.72-.6.72-1,0-1.27a11.46,11.46,0,0,0-3.27-.73,5.81,5.81,0,0,0-2.55.73,1,1,0,0,1-.72-.37A5.84,5.84,0,0,1,415.11,134.55Zm7.63,42.14v-6.9q0-.36.18-.36h.55q6.88,6.18,7.26,14a28.23,28.23,0,0,1-3.27,14.71h-.36a47.42,47.42,0,0,0,.36-12.89q-.73-5.62-4-7.45A1.15,1.15,0,0,1,422.74,176.69Z"/></g></g></svg>