<svg xmlns="http://www.w3.org/2000/svg" viewBox="0 0 404.85 103.2"><defs><style>.cls-1{fill:#fff;}</style></defs><g id="Layer_2" data-name="Layer 2"><g id="Layer_1-2" data-name="Layer 1"><path class="cls-1" d="M57.3,86.4a9.32,9.32,0,0,1,0,13.12,8.82,8.82,0,0,1-6.6,2.78H10.2a9.82,9.82,0,0,1-7.2-3,9.82,9.82,0,0,1-3-7.2v-81A9.76,9.76,0,0,1,3,3.82,10,10,0,0,1,10.2.9,10,10,0,0,1,20.4,11.1V83.7H50.7A9,9,0,0,1,57.3,86.4Z"/><path class="cls-1" d="M93.45,96.6A48.74,48.74,0,0,1,74.92,78.22,52.07,52.07,0,0,1,68.1,51.6,52.16,52.16,0,0,1,74.92,25,48.85,48.85,0,0,1,93.45,6.6a53.73,53.73,0,0,1,51.6,0A48.83,48.83,0,0,1,163.57,25,52.16,52.16,0,0,1,170.4,51.6a52.07,52.07,0,0,1-6.83,26.62A48.71,48.71,0,0,1,145.05,96.6a53.73,53.73,0,0,1-51.6,0ZM134.7,80.4a30.32,30.32,0,0,0,11.17-11.7A34.9,34.9,0,0,0,150,51.6a34.9,34.9,0,0,0-4.13-17.1A30.32,30.32,0,0,0,134.7,22.8a30.52,30.52,0,0,0-30.9,0A30.34,30.34,0,0,0,92.62,34.5,34.89,34.89,0,0,0,88.5,51.6a34.89,34.89,0,0,0,4.12,17.1A30.34,30.34,0,0,0,103.8,80.4a30.52,30.52,0,0,0,30.9,0Z"/><path class="cls-1" d="M212.55,96.6A48.74,48.74,0,0,1,194,78.22,52.07,52.07,0,0,1,187.2,51.6,52.16,52.16,0,0,1,194,25,48.85,48.85,0,0,1,212.55,6.6,51.6,51.6,0,0,1,238.35,0a52.57,52.57,0,0,1,19.57,3.67A49.21,49.21,0,0,1,274.2,14.25,8.65,8.65,0,0,1,277.05,21a9,9,0,0,1-2.7,6.52,8.82,8.82,0,0,1-6.6,2.78A9.83,9.83,0,0,1,261,27.6a30.71,30.71,0,0,0-10-6.68A32,32,0,0,0,223.2,22.8a30.46,30.46,0,0,0-11.4,11.7,34.39,34.39,0,0,0-4.2,17.1,34.89,34.89,0,0,0,4.12,17.1A30.27,30.27,0,0,0,222.9,80.4a29.61,29.61,0,0,0,15.45,4.2,28.05,28.05,0,0,0,16.5-5A27,27,0,0,0,265.05,66H242.4a9.28,9.28,0,0,1-6.53-15.9,9.06,9.06,0,0,1,6.53-2.7h33.3q4.8,0,7.5,2.4c1.8,1.6,2.64,4,2.55,7.05a48.21,48.21,0,0,1-6.53,23.55,45,45,0,0,1-17,16.73,47.77,47.77,0,0,1-23.92,6.07A51.6,51.6,0,0,1,212.55,96.6Z"/><path class="cls-1" d="M327.9,96.6a48.74,48.74,0,0,1-18.53-18.38,52.07,52.07,0,0,1-6.82-26.62A52.16,52.16,0,0,1,309.37,25,48.85,48.85,0,0,1,327.9,6.6a53.73,53.73,0,0,1,51.6,0A48.83,48.83,0,0,1,398,25a52.16,52.16,0,0,1,6.83,26.63A52.07,52.07,0,0,1,398,78.22,48.71,48.71,0,0,1,379.5,96.6a53.73,53.73,0,0,1-51.6,0Zm41.25-16.2a30.39,30.39,0,0,0,11.17-11.7,34.9,34.9,0,0,0,4.13-17.1,34.9,34.9,0,0,0-4.13-17.1,30.39,30.39,0,0,0-11.17-11.7,30.52,30.52,0,0,0-30.9,0,30.27,30.27,0,0,0-11.18,11.7A34.89,34.89,0,0,0,323,51.6a34.89,34.89,0,0,0,4.12,17.1,30.27,30.27,0,0,0,11.18,11.7,30.52,30.52,0,0,0,30.9,0Z"/></g></g></svg>